:SAMPLES-PER-SECOND 30
:FULLY-SPECIFIED
:DEGREES
266
root  54.8761 39.309 2.49786 68.5508 87.7423 68.396
RightUpLeg  -11.5724 -4.11873 -4.43456
RightLeg  5.39018 19.8795 -1.74081
RightFoot  4.27516 -0.505636 3.89953
RightToes  4.01633e-009 0 -3.6325e-017
Spine  11.5564 -0.8692 5.28672
Spine1  13.3938 1.47285 -6.34376
HEad  3.12392 2.1525 -4.3668
LeftShoulder1  1.4625 -3.3879 -14.3294
LeftArm  -11.4071 -66.0895 -35.2137
LeftForeArm  -11.0629 -12.515 -6.8988
LeftHand  -0.169217 8.78434 -3.92498
RightShoulder  0.836674 2.27211 6.88148
RightArm  -6.64652 70.0578 40.1981
RightForeArm  -30.5665 -0.944345 4.50817
RightHand  0.0811372 0.297335 1.62879
LeftUpLeg  -8.90065 4.60381 -1.82422
LeftLeg  8.9759 -6.15582 -2.03778
LeftFoot  2.336 -0.584827 4.75525
LeftToes  -1.95724e-009 9.62483e-011 3.51777e-011
267
root  54.9561 39.3476 2.80055 111.797 87.7174 111.572
RightUpLeg  -10.859 -5.7131 -4.54644
RightLeg  4.61189 19.495 -1.19923
RightFoot  4.60057 -0.472658 3.6008
RightToes  4.01633e-009 0 -3.6325e-017
Spine  11.6666 -1.11082 5.53663
Spine1  13.3219 0.897149 -5.28432
HEad  3.49335 3.56799 -5.82136
LeftShoulder1  1.47746 -3.10169 -15.565
LeftArm  -8.94907 -66.02 -36.1671
LeftForeArm  -10.5664 -14.0806 -6.94856
LeftHand  -0.138777 8.37792 -3.3692
RightShoulder  0.819733 2.27774 6.52689
RightArm  -7.85051 68.2504 39.2357
RightForeArm  -28.8597 1.75181 4.16773
RightHand  0.145889 0.659031 2.74668
LeftUpLeg  -8.82021 4.22588 -1.62933
LeftLeg  8.65177 -7.64131 -1.86414
LeftFoot  2.52013 -0.527943 4.21837
LeftToes  -1.95724e-009 9.62483e-011 3.51777e-011
268
root  55.0315 39.367 3.07693 146.847 86.3728 146.276
RightUpLeg  -10.63 -7.18517 -4.92848
RightLeg  4.41488 18.5356 -0.11294
RightFoot  5.06019 -0.408156 3.06976
RightToes  4.01633e-009 0 -3.6325e-017
Spine  11.311 -1.55259 6.60784
Spine1  13.3575 0.467734 -5.24071
HEad  3.6575 6.33659 -7.77244
LeftShoulder1  1.49028 -3.01561 -16.1079
LeftArm  -4.88086 -64.9238 -38.0401
LeftForeArm  -8.64225 -18.025 -6.05631
LeftHand  -0.0812843 7.46823 -2.07645
RightShoulder  0.785661 2.00891 6.60515
RightArm  -8.40263 65.9319 37.9063
RightForeArm  -28.6104 5.3142 4.26667
RightHand  0.15099 0.938765 2.67694
LeftUpLeg  -9.31828 3.02416 -1.6665
LeftLeg  8.74382 -8.58557 -1.33687
LeftFoot  2.43442 -0.388895 3.09394
LeftToes  -1.95724e-009 9.62483e-011 3.51777e-011
269
root  55.0745 39.3422 3.34302 157.051 84.4992 156.174
RightUpLeg  -10.9355 -8.4224 -5.38655
RightLeg  5.23062 17.4359 1.11524
RightFoot  5.03488 -0.340943 2.60803
RightToes  4.01633e-009 0 -3.6325e-017
Spine  11.4633 -2.09923 6.61024
Spine1  12.633 -0.301538 -4.79038
HEad  2.71385 9.17098 -8.63706
LeftShoulder1  1.35776 -2.40609 -16.2315
LeftArm  -0.966284 -63.6929 -39.0514
LeftForeArm  -6.89043 -21.9201 -5.4085
LeftHand  -0.0511298 6.74911 -1.16321
RightShoulder  0.840064 1.99419 7.79402
RightArm  -7.61785 63.7153 36.6983
RightForeArm  -29.5378 9.38661 4.90727
RightHand  0.133157 1.39108 2.20646
LeftUpLeg  -10.1608 1.84007 -1.66974
LeftLeg  9.56511 -8.88123 -1.17462
LeftFoot  1.53526 -0.184513 1.54754
LeftToes  -1.95724e-009 9.62483e-011 3.51777e-011
270
root  55.056 39.3456 3.60561 162.857 82.3234 161.851
RightUpLeg  -10.8987 -9.01986 -5.63866
RightLeg  5.51675 15.4572 1.47685
RightFoot  5.22488 -0.312169 2.39026
RightToes  4.01633e-009 0 -3.6325e-017
Spine  11.507 -2.29521 7.22282
Spine1  12.5122 -0.503046 -4.69614
HEad  2.38194 11.0667 -9.39463
LeftShoulder1  1.3701 -2.32142 -16.822
LeftArm  0.777604 -62.9133 -40.3832
LeftForeArm  -4.81264 -25.23 -5.60195
LeftHand  -0.0474755 6.6326 -0.898428
RightShoulder  0.803456 1.39423 9.03608
RightArm  -7.67983 61.6379 34.1873
RightForeArm  -31.9826 12.4785 5.356
RightHand  0.0660865 2.06985 0.847771
LeftUpLeg  -10.7924 1.02904 -1.65083
LeftLeg  10.3538 -7.43058 -0.917796
LeftFoot  -0.108876 0.0412872 -0.451147
LeftToes  -1.95724e-009 9.62483e-011 3.51777e-011
271
root  55.0427 39.4095 3.84587 163.987 80.3069 163.052
RightUpLeg  -10.3504 -9.73198 -6.20424
RightLeg  5.23587 14.0619 1.73414
RightFoot  5.62124 -0.25862 1.99182
RightToes  4.01633e-009 0 -3.6325e-017
Spine  11.4265 -2.35389 6.8289
Spine1  12.7537 -0.738759 -4.19275
HEad  1.65955 14.0896 -10.9189
LeftShoulder1  1.39825 -2.33766 -17.2752
LeftArm  0.562215 -61.7924 -41.2929
LeftForeArm  -3.71828 -27.2871 -6.07036
LeftHand  -0.0338502 5.86324 -0.561832
RightShoulder  0.776134 1.10964 9.51369
RightArm  -8.63309 59.815 32.7103
RightForeArm  -31.6783 14.2994 5.15107
RightHand  0.120696 1.89855 1.75788
LeftUpLeg  -10.7611 2.11718 -1.89342
LeftLeg  11.3893 -3.35238 -0.430118
LeftFoot  -2.6283 0.170015 -1.94489
LeftToes  -1.95724e-009 9.62483e-011 3.51777e-011
272
root  55.0262 39.4885 4.02755 163.621 78.3479 162.725
RightUpLeg  -9.81327 -10.4743 -6.98937
RightLeg  4.90294 12.8105 1.92944
RightFoot  5.95345 -0.220869 1.71991
RightToes  4.01633e-009 0 -3.6325e-017
Spine  11.2115 -2.42258 6.69108
Spine1  12.8137 -0.702052 -4.58069
HEad  1.07231 16.6848 -11.4702
LeftShoulder1  1.38479 -2.18638 -17.715
LeftArm  1.02793 -60.477 -43.1534
LeftForeArm  -2.52999 -28.701 -6.34848
LeftHand  -0.0292352 5.40857 -0.973488
RightShoulder  0.761461 0.994331 9.63794
RightArm  -10.0454 57.2987 31.8878
RightForeArm  -31.0779 16.0769 4.88963
RightHand  0.0652922 2.37916 0.796677
LeftUpLeg  -10.5135 4.91244 -2.34278
LeftLeg  13.1606 0.446255 0.063762
LeftFoot  -5.12098 0.0948132 -1.19864
LeftToes  -1.95724e-009 9.62483e-011 3.51777e-011
273
root  55.0009 39.5903 4.20126 164.937 75.4447 164.016
RightUpLeg  -8.84642 -10.8833 -7.73483
RightLeg  3.90947 10.4083 1.58114
RightFoot  6.36685 -0.211299 1.63571
RightToes  4.01633e-009 0 -3.6325e-017
Spine  10.765 -2.60401 6.48017
Spine1  12.76 -0.853478 -4.82578
HEad  0.725682 19.0574 -12.0698
LeftShoulder1  1.36118 -1.9192 -18.5275
LeftArm  3.17701 -59.1857 -46.2817
LeftForeArm  -2.48524 -29.7666 -6.61108
LeftHand  -0.0227499 4.78216 -0.558924
RightShoulder  0.747763 0.788387 10.1891
RightArm  -13.6569 53.4048 31.0708
RightForeArm  -28.1122 18.9056 4.88247
RightHand  -0.0370058 2.48407 -0.763389
LeftUpLeg  -9.72976 7.35319 -2.67784
LeftLeg  14.0055 3.81846 0.943791
LeftFoot  -5.75723 0.0916516 -1.17528
LeftToes  -1.95724e-009 9.62483e-011 3.51777e-011
274
root  54.9794 39.6492 4.37052 166.522 71.7398 165.371
RightUpLeg  -8.30784 -11.5646 -8.70011
RightLeg  3.86581 7.47719 1.5594
RightFoot  6.11034 -0.197191 1.55869
RightToes  4.01633e-009 0 -3.6325e-017
Spine  9.87173 -2.65418 6.19457
Spine1  12.7401 -0.925156 -4.9583
HEad  1.05824 19.0543 -11.5312
LeftShoulder1  1.34847 -1.88872 -18.4285
LeftArm  4.52156 -56.5527 -50.959
LeftForeArm  -2.77852 -31.59 -7.09096
LeftHand  -0.0287077 5.21379 0.588597
RightShoulder  0.703244 0.370939 11.0367
RightArm  -20.2976 47.522 30.0416
RightForeArm  -21.2603 23.4153 5.85179
RightHand  -0.077888 2.69817 -1.26875
LeftUpLeg  -9.22743 11.057 -2.63792
LeftLeg  15.247 3.96932 1.17241
LeftFoot  -6.1121 0.0944009 -1.2603
LeftToes  -1.95724e-009 9.62483e-011 3.51777e-011
275
root  54.9276 39.6748 4.51217 168.416 67.1754 167.31
RightUpLeg  -7.38487 -12.2395 -9.69017
RightLeg  4.04241 3.76856 1.54907
RightFoot  5.42804 -0.244626 1.91155
RightToes  4.01633e-009 0 -3.6325e-017
Spine  9.70135 -2.6623 6.24304
Spine1  11.8004 -0.921798 -5.07175
HEad  2.34755 15.8995 -10.4048
LeftShoulder1  1.32519 -1.80398 -18.3847
LeftArm  7.74575 -53.5701 -56.0235
LeftForeArm  -2.94436 -33.6312 -7.65005
LeftHand  -0.0296492 4.88346 0.68265
RightShoulder  0.60033 -0.415549 12.4751
RightArm  -27.0102 39.0952 29.6468
RightForeArm  -15.8992 29.817 7.32569
RightHand  -0.263597 2.95732 -3.94467
LeftUpLeg  -8.70766 14.1994 -2.04419
LeftLeg  16.6047 3.59474 1.39432
LeftFoot  -6.09001 0.0690879 -0.703591
LeftToes  -1.95724e-009 9.62483e-011 3.51777e-011
